<svg xmlns="http://www.w3.org/2000/svg" xmlns:xlink="http://www.w3.org/1999/xlink" width="113" zoomAndPan="magnify" viewBox="0 0 84.75 59.249999" height="79" preserveAspectRatio="xMidYMid meet" version="1.0"><defs><g/><clipPath id="36c5a777ec"><path d="M 0.796875 0.0078125 L 39 0.0078125 L 39 57.777344 L 0.796875 57.777344 Z M 0.796875 0.0078125 " clip-rule="nonzero"/></clipPath><clipPath id="bc6974f616"><path d="M 0.796875 0.0078125 L 39 0.0078125 L 39 44 L 0.796875 44 Z M 0.796875 0.0078125 " clip-rule="nonzero"/></clipPath><clipPath id="51fc88feea"><path d="M 51 0.0078125 L 63.007812 0.0078125 L 63.007812 12 L 51 12 Z M 51 0.0078125 " clip-rule="nonzero"/></clipPath><clipPath id="f41522b2be"><path d="M 24 0.0078125 L 63.007812 0.0078125 L 63.007812 57.777344 L 24 57.777344 Z M 24 0.0078125 " clip-rule="nonzero"/></clipPath><clipPath id="256a7ea008"><path d="M 24 0.0078125 L 63.007812 0.0078125 L 63.007812 44 L 24 44 Z M 24 0.0078125 " clip-rule="nonzero"/></clipPath></defs><g clip-path="url(#36c5a777ec)"><path fill="#0788ff" d="M 15.675781 2.921875 L 35.785156 23.03125 C 36.1875 23.433594 36.550781 23.875 36.867188 24.351562 C 37.1875 24.828125 37.453125 25.328125 37.675781 25.859375 C 37.894531 26.386719 38.058594 26.933594 38.171875 27.492188 C 38.28125 28.054688 38.335938 28.621094 38.335938 29.195312 C 38.335938 29.765625 38.28125 30.332031 38.171875 30.894531 C 38.058594 31.457031 37.894531 32 37.675781 32.53125 C 37.453125 33.058594 37.1875 33.5625 36.867188 34.039062 C 36.550781 34.511719 36.1875 34.953125 35.785156 35.359375 L 15.675781 55.464844 C 10.183594 60.957031 0.792969 57.066406 0.796875 49.296875 L 0.796875 9.078125 C 0.792969 1.320312 10.183594 -2.570312 15.675781 2.921875 Z M 15.675781 2.921875 " fill-opacity="1" fill-rule="nonzero"/></g><g clip-path="url(#bc6974f616)"><path fill="#00d7ff" d="M 15.675781 2.921875 C 10.214844 -2.539062 0.929688 1.277344 0.800781 8.949219 C 0.800781 8.949219 32.441406 38.886719 27.410156 43.769531 L 35.800781 35.375 C 36.207031 34.972656 36.566406 34.53125 36.886719 34.054688 C 37.203125 33.578125 37.472656 33.078125 37.691406 32.546875 C 37.910156 32.019531 38.078125 31.472656 38.1875 30.914062 C 38.300781 30.351562 38.355469 29.785156 38.355469 29.210938 C 38.355469 28.640625 38.300781 28.074219 38.1875 27.511719 C 38.078125 26.949219 37.910156 26.40625 37.691406 25.875 C 37.472656 25.347656 37.203125 24.84375 36.886719 24.367188 C 36.566406 23.890625 36.207031 23.453125 35.800781 23.046875 Z M 15.675781 2.921875 " fill-opacity="1" fill-rule="nonzero"/></g><g clip-path="url(#51fc88feea)"><path fill="#0788ff" d="M 63.355469 5.773438 C 63.355469 6.144531 63.320312 6.515625 63.246094 6.882812 C 63.171875 7.25 63.066406 7.605469 62.921875 7.953125 C 62.777344 8.296875 62.601562 8.625 62.394531 8.9375 C 62.1875 9.25 61.949219 9.535156 61.6875 9.800781 C 61.421875 10.066406 61.132812 10.300781 60.824219 10.507812 C 60.511719 10.71875 60.183594 10.890625 59.839844 11.035156 C 59.492188 11.179688 59.136719 11.285156 58.769531 11.359375 C 58.402344 11.433594 58.03125 11.46875 57.65625 11.46875 C 57.285156 11.46875 56.914062 11.433594 56.546875 11.359375 C 56.179688 11.285156 55.824219 11.179688 55.476562 11.035156 C 55.132812 10.890625 54.804688 10.71875 54.492188 10.507812 C 54.179688 10.300781 53.894531 10.066406 53.628906 9.800781 C 53.363281 9.535156 53.128906 9.25 52.921875 8.9375 C 52.710938 8.625 52.539062 8.296875 52.394531 7.953125 C 52.25 7.605469 52.144531 7.25 52.070312 6.882812 C 51.996094 6.515625 51.960938 6.144531 51.960938 5.773438 C 51.960938 5.398438 51.996094 5.027344 52.070312 4.660156 C 52.144531 4.292969 52.25 3.9375 52.394531 3.589844 C 52.539062 3.246094 52.710938 2.917969 52.921875 2.605469 C 53.128906 2.296875 53.363281 2.007812 53.628906 1.742188 C 53.894531 1.480469 54.179688 1.242188 54.492188 1.035156 C 54.804688 0.828125 55.132812 0.652344 55.476562 0.507812 C 55.824219 0.363281 56.179688 0.257812 56.546875 0.183594 C 56.914062 0.109375 57.285156 0.0742188 57.65625 0.0742188 C 58.03125 0.0742188 58.402344 0.109375 58.769531 0.183594 C 59.136719 0.257812 59.492188 0.363281 59.839844 0.507812 C 60.183594 0.652344 60.511719 0.828125 60.824219 1.035156 C 61.132812 1.242188 61.421875 1.480469 61.6875 1.742188 C 61.949219 2.007812 62.1875 2.296875 62.394531 2.605469 C 62.601562 2.917969 62.777344 3.246094 62.921875 3.589844 C 63.066406 3.9375 63.171875 4.292969 63.246094 4.660156 C 63.320312 5.027344 63.355469 5.398438 63.355469 5.773438 Z M 63.355469 5.773438 " fill-opacity="1" fill-rule="nonzero"/><path fill="#0788ff" d="M 63.355469 5.773438 C 63.355469 6.144531 63.320312 6.515625 63.246094 6.882812 C 63.171875 7.25 63.066406 7.605469 62.921875 7.953125 C 62.777344 8.296875 62.601562 8.625 62.394531 8.9375 C 62.1875 9.25 61.949219 9.535156 61.6875 9.800781 C 61.421875 10.066406 61.132812 10.300781 60.824219 10.507812 C 60.511719 10.71875 60.183594 10.890625 59.839844 11.035156 C 59.492188 11.179688 59.136719 11.285156 58.769531 11.359375 C 58.402344 11.433594 58.03125 11.46875 57.65625 11.46875 C 57.285156 11.46875 56.914062 11.433594 56.546875 11.359375 C 56.179688 11.285156 55.824219 11.179688 55.476562 11.035156 C 55.132812 10.890625 54.804688 10.71875 54.492188 10.507812 C 54.179688 10.300781 53.894531 10.066406 53.628906 9.800781 C 53.363281 9.535156 53.128906 9.25 52.921875 8.9375 C 52.710938 8.625 52.539062 8.296875 52.394531 7.953125 C 52.25 7.605469 52.144531 7.25 52.070312 6.882812 C 51.996094 6.515625 51.960938 6.144531 51.960938 5.773438 C 51.960938 5.398438 51.996094 5.027344 52.070312 4.660156 C 52.144531 4.292969 52.25 3.9375 52.394531 3.589844 C 52.539062 3.246094 52.710938 2.917969 52.921875 2.605469 C 53.128906 2.296875 53.363281 2.007812 53.628906 1.742188 C 53.894531 1.480469 54.179688 1.242188 54.492188 1.035156 C 54.804688 0.828125 55.132812 0.652344 55.476562 0.507812 C 55.824219 0.363281 56.179688 0.257812 56.546875 0.183594 C 56.914062 0.109375 57.285156 0.0742188 57.65625 0.0742188 C 58.03125 0.0742188 58.402344 0.109375 58.769531 0.183594 C 59.136719 0.257812 59.492188 0.363281 59.839844 0.507812 C 60.183594 0.652344 60.511719 0.828125 60.824219 1.035156 C 61.132812 1.242188 61.421875 1.480469 61.6875 1.742188 C 61.949219 2.007812 62.1875 2.296875 62.394531 2.605469 C 62.601562 2.917969 62.777344 3.246094 62.921875 3.589844 C 63.066406 3.9375 63.171875 4.292969 63.246094 4.660156 C 63.320312 5.027344 63.355469 5.398438 63.355469 5.773438 Z M 63.355469 5.773438 " fill-opacity="1" fill-rule="nonzero"/></g><g clip-path="url(#f41522b2be)"><path fill="#0096ff" d="M 60.800781 23.078125 L 40.691406 2.96875 C 35.292969 -2.433594 20.902344 3.832031 25.828125 8.757812 L 40.289062 23.222656 C 40.695312 23.625 41.054688 24.066406 41.375 24.542969 C 41.691406 25.015625 41.960938 25.519531 42.179688 26.046875 C 42.398438 26.578125 42.5625 27.121094 42.675781 27.683594 C 42.789062 28.246094 42.84375 28.8125 42.84375 29.382812 C 42.84375 29.957031 42.789062 30.523438 42.675781 31.085938 C 42.5625 31.644531 42.398438 32.191406 42.179688 32.71875 C 41.960938 33.246094 41.691406 33.75 41.375 34.226562 C 41.054688 34.703125 40.695312 35.140625 40.289062 35.546875 L 25.835938 50 C 21.429688 54.402344 35.347656 60.894531 40.691406 55.550781 L 60.800781 35.441406 C 61.207031 35.039062 61.570312 34.597656 61.890625 34.121094 C 62.210938 33.644531 62.480469 33.140625 62.703125 32.609375 C 62.921875 32.078125 63.089844 31.53125 63.203125 30.96875 C 63.3125 30.40625 63.371094 29.835938 63.371094 29.261719 C 63.371094 28.6875 63.3125 28.117188 63.203125 27.554688 C 63.089844 26.992188 62.921875 26.445312 62.703125 25.914062 C 62.480469 25.382812 62.210938 24.878906 61.890625 24.402344 C 61.570312 23.925781 61.207031 23.484375 60.800781 23.078125 Z M 60.800781 23.078125 " fill-opacity="1" fill-rule="nonzero"/></g><g clip-path="url(#256a7ea008)"><path fill="#013186" d="M 60.800781 23.078125 L 40.691406 2.96875 C 35.292969 -2.433594 20.902344 3.832031 25.828125 8.757812 L 40.289062 23.222656 C 41.726562 24.65625 42.558594 26.386719 42.78125 28.40625 C 47.765625 34.253906 51.90625 39.933594 52.769531 43.472656 L 60.8125 35.429688 C 61.21875 35.023438 61.582031 34.582031 61.898438 34.105469 C 62.21875 33.628906 62.488281 33.125 62.707031 32.59375 C 62.925781 32.066406 63.09375 31.519531 63.203125 30.957031 C 63.316406 30.394531 63.371094 29.824219 63.371094 29.25 C 63.371094 28.675781 63.3125 28.109375 63.199219 27.546875 C 63.085938 26.984375 62.921875 26.4375 62.699219 25.910156 C 62.480469 25.378906 62.210938 24.875 61.890625 24.398438 C 61.570312 23.921875 61.207031 23.484375 60.800781 23.078125 Z M 60.800781 23.078125 " fill-opacity="1" fill-rule="nonzero"/></g><g fill="#ffffff" fill-opacity="1"><g transform="translate(63.360031, 8.238029)"><g><path d="M 0.925781 0 L 0.925781 -1.152344 C 0.925781 -1.679688 1.199219 -1.976562 1.597656 -1.976562 L 1.832031 -1.976562 L 1.832031 -2.476562 L 1.566406 -2.476562 C 1.242188 -2.476562 1.015625 -2.300781 0.902344 -2.03125 L 0.902344 -2.476562 L 0.34375 -2.476562 L 0.34375 0 Z M 0.925781 0 "/></g></g></g></svg>