<svg xmlns="http://www.w3.org/2000/svg" xmlns:xlink="http://www.w3.org/1999/xlink" width="402" zoomAndPan="magnify" viewBox="0 0 301.5 103.5" height="138" preserveAspectRatio="xMidYMid meet" version="1.0"><defs><g/><clipPath id="3ff875198f"><path d="M 0.867188 20.160156 L 42 20.160156 L 42 82.855469 L 0.867188 82.855469 Z M 0.867188 20.160156 " clip-rule="nonzero"/></clipPath><clipPath id="71dab3c735"><path d="M 0.867188 20.160156 L 42 20.160156 L 42 68 L 0.867188 68 Z M 0.867188 20.160156 " clip-rule="nonzero"/></clipPath><clipPath id="6bafdd6a32"><path d="M 56 20.160156 L 68.042969 20.160156 L 68.042969 33 L 56 33 Z M 56 20.160156 " clip-rule="nonzero"/></clipPath><clipPath id="f632979183"><path d="M 26 21 L 68.042969 21 L 68.042969 82.855469 L 26 82.855469 Z M 26 21 " clip-rule="nonzero"/></clipPath><clipPath id="b9f51d1c22"><path d="M 26 21 L 68.042969 21 L 68.042969 68 L 26 68 Z M 26 21 " clip-rule="nonzero"/></clipPath></defs><g clip-path="url(#3ff875198f)"><path fill="#0788ff" d="M 16.914062 23.300781 L 38.59375 44.984375 C 39.03125 45.417969 39.421875 45.894531 39.765625 46.40625 C 40.105469 46.921875 40.398438 47.460938 40.632812 48.03125 C 40.867188 48.601562 41.046875 49.191406 41.167969 49.796875 C 41.289062 50.402344 41.347656 51.011719 41.347656 51.628906 C 41.347656 52.246094 41.289062 52.859375 41.167969 53.464844 C 41.046875 54.070312 40.867188 54.65625 40.632812 55.226562 C 40.398438 55.796875 40.105469 56.339844 39.765625 56.851562 C 39.421875 57.363281 39.03125 57.839844 38.59375 58.277344 L 16.914062 79.957031 C 10.992188 85.878906 0.863281 81.683594 0.867188 73.304688 L 0.867188 29.941406 C 0.863281 21.574219 10.992188 17.378906 16.914062 23.300781 Z M 16.914062 23.300781 " fill-opacity="1" fill-rule="nonzero"/></g><g clip-path="url(#71dab3c735)"><path fill="#00d7ff" d="M 16.914062 23.300781 C 11.023438 17.414062 1.011719 21.527344 0.875 29.800781 C 0.875 29.800781 34.992188 62.082031 29.566406 67.34375 L 38.613281 58.296875 C 39.050781 57.859375 39.441406 57.382812 39.785156 56.871094 C 40.125 56.359375 40.414062 55.816406 40.652344 55.246094 C 40.886719 54.675781 41.066406 54.085938 41.1875 53.480469 C 41.308594 52.878906 41.367188 52.265625 41.367188 51.648438 C 41.367188 51.03125 41.308594 50.421875 41.1875 49.816406 C 41.066406 49.210938 40.886719 48.621094 40.652344 48.050781 C 40.414062 47.480469 40.125 46.9375 39.785156 46.425781 C 39.441406 45.914062 39.050781 45.4375 38.613281 45 Z M 16.914062 23.300781 " fill-opacity="1" fill-rule="nonzero"/></g><g clip-path="url(#6bafdd6a32)"><path fill="#0788ff" d="M 68.324219 26.375 C 68.324219 26.777344 68.285156 27.175781 68.207031 27.574219 C 68.128906 27.96875 68.011719 28.351562 67.855469 28.726562 C 67.703125 29.097656 67.511719 29.453125 67.289062 29.789062 C 67.0625 30.121094 66.808594 30.433594 66.523438 30.71875 C 66.238281 31.003906 65.929688 31.257812 65.59375 31.480469 C 65.257812 31.707031 64.902344 31.894531 64.53125 32.050781 C 64.160156 32.203125 63.773438 32.320312 63.378906 32.398438 C 62.984375 32.476562 62.582031 32.519531 62.179688 32.519531 C 61.777344 32.519531 61.378906 32.476562 60.980469 32.398438 C 60.585938 32.320312 60.203125 32.203125 59.828125 32.050781 C 59.457031 31.894531 59.101562 31.707031 58.765625 31.480469 C 58.433594 31.257812 58.121094 31.003906 57.835938 30.71875 C 57.550781 30.433594 57.296875 30.121094 57.074219 29.789062 C 56.847656 29.453125 56.660156 29.097656 56.503906 28.726562 C 56.351562 28.351562 56.234375 27.96875 56.15625 27.574219 C 56.078125 27.175781 56.039062 26.777344 56.039062 26.375 C 56.039062 25.972656 56.078125 25.570312 56.15625 25.175781 C 56.234375 24.78125 56.351562 24.394531 56.503906 24.023438 C 56.660156 23.652344 56.847656 23.296875 57.074219 22.960938 C 57.296875 22.625 57.550781 22.316406 57.835938 22.03125 C 58.121094 21.746094 58.433594 21.492188 58.765625 21.265625 C 59.101562 21.042969 59.457031 20.851562 59.828125 20.699219 C 60.203125 20.542969 60.585938 20.429688 60.980469 20.347656 C 61.378906 20.269531 61.777344 20.230469 62.179688 20.230469 C 62.582031 20.230469 62.984375 20.269531 63.378906 20.347656 C 63.773438 20.429688 64.160156 20.542969 64.53125 20.699219 C 64.902344 20.851562 65.257812 21.042969 65.59375 21.265625 C 65.929688 21.492188 66.238281 21.746094 66.523438 22.03125 C 66.808594 22.316406 67.0625 22.625 67.289062 22.960938 C 67.511719 23.296875 67.703125 23.652344 67.855469 24.023438 C 68.011719 24.394531 68.128906 24.78125 68.207031 25.175781 C 68.285156 25.570312 68.324219 25.972656 68.324219 26.375 Z M 68.324219 26.375 " fill-opacity="1" fill-rule="nonzero"/><path fill="#0788ff" d="M 68.324219 26.375 C 68.324219 26.777344 68.285156 27.175781 68.207031 27.574219 C 68.128906 27.96875 68.011719 28.351562 67.855469 28.726562 C 67.703125 29.097656 67.511719 29.453125 67.289062 29.789062 C 67.0625 30.121094 66.808594 30.433594 66.523438 30.71875 C 66.238281 31.003906 65.929688 31.257812 65.59375 31.480469 C 65.257812 31.707031 64.902344 31.894531 64.53125 32.050781 C 64.160156 32.203125 63.773438 32.320312 63.378906 32.398438 C 62.984375 32.476562 62.582031 32.519531 62.179688 32.519531 C 61.777344 32.519531 61.378906 32.476562 60.980469 32.398438 C 60.585938 32.320312 60.203125 32.203125 59.828125 32.050781 C 59.457031 31.894531 59.101562 31.707031 58.765625 31.480469 C 58.433594 31.257812 58.121094 31.003906 57.835938 30.71875 C 57.550781 30.433594 57.296875 30.121094 57.074219 29.789062 C 56.847656 29.453125 56.660156 29.097656 56.503906 28.726562 C 56.351562 28.351562 56.234375 27.96875 56.15625 27.574219 C 56.078125 27.175781 56.039062 26.777344 56.039062 26.375 C 56.039062 25.972656 56.078125 25.570312 56.15625 25.175781 C 56.234375 24.78125 56.351562 24.394531 56.503906 24.023438 C 56.660156 23.652344 56.847656 23.296875 57.074219 22.960938 C 57.296875 22.625 57.550781 22.316406 57.835938 22.03125 C 58.121094 21.746094 58.433594 21.492188 58.765625 21.265625 C 59.101562 21.042969 59.457031 20.851562 59.828125 20.699219 C 60.203125 20.542969 60.585938 20.429688 60.980469 20.347656 C 61.378906 20.269531 61.777344 20.230469 62.179688 20.230469 C 62.582031 20.230469 62.984375 20.269531 63.378906 20.347656 C 63.773438 20.429688 64.160156 20.542969 64.53125 20.699219 C 64.902344 20.851562 65.257812 21.042969 65.59375 21.265625 C 65.929688 21.492188 66.238281 21.746094 66.523438 22.03125 C 66.808594 22.316406 67.0625 22.625 67.289062 22.960938 C 67.511719 23.296875 67.703125 23.652344 67.855469 24.023438 C 68.011719 24.394531 68.128906 24.78125 68.207031 25.175781 C 68.285156 25.570312 68.324219 25.972656 68.324219 26.375 Z M 68.324219 26.375 " fill-opacity="1" fill-rule="nonzero"/></g><g clip-path="url(#f632979183)"><path fill="#0096ff" d="M 65.566406 45.035156 L 43.886719 23.351562 C 38.066406 17.527344 22.550781 24.285156 27.859375 29.59375 L 43.453125 45.191406 C 43.886719 45.625 44.277344 46.101562 44.621094 46.613281 C 44.964844 47.125 45.253906 47.667969 45.492188 48.238281 C 45.726562 48.808594 45.90625 49.394531 46.027344 50 C 46.144531 50.605469 46.207031 51.21875 46.207031 51.835938 C 46.207031 52.449219 46.144531 53.0625 46.027344 53.667969 C 45.90625 54.273438 45.726562 54.859375 45.492188 55.429688 C 45.253906 56 44.964844 56.542969 44.621094 57.054688 C 44.277344 57.566406 43.886719 58.042969 43.453125 58.476562 L 27.871094 74.066406 C 23.117188 78.8125 38.121094 85.8125 43.886719 80.050781 L 65.566406 58.367188 C 66.007812 57.929688 66.398438 57.457031 66.746094 56.941406 C 67.089844 56.425781 67.382812 55.882812 67.621094 55.3125 C 67.855469 54.738281 68.035156 54.148438 68.15625 53.542969 C 68.28125 52.933594 68.339844 52.320312 68.339844 51.703125 C 68.339844 51.082031 68.28125 50.46875 68.15625 49.859375 C 68.035156 49.253906 67.855469 48.664062 67.621094 48.089844 C 67.382812 47.519531 67.089844 46.976562 66.746094 46.460938 C 66.398438 45.949219 66.007812 45.472656 65.566406 45.035156 Z M 65.566406 45.035156 " fill-opacity="1" fill-rule="nonzero"/></g><g clip-path="url(#b9f51d1c22)"><path fill="#013186" d="M 65.566406 45.035156 L 43.886719 23.351562 C 38.066406 17.527344 22.550781 24.285156 27.859375 29.59375 L 43.453125 45.191406 C 44.203125 45.941406 44.8125 46.796875 45.273438 47.753906 C 45.734375 48.714844 46.023438 49.722656 46.140625 50.777344 C 51.511719 57.085938 55.980469 63.210938 56.910156 67.027344 L 65.582031 58.351562 C 66.019531 57.914062 66.410156 57.441406 66.753906 56.925781 C 67.097656 56.410156 67.386719 55.867188 67.625 55.296875 C 67.863281 54.726562 68.039062 54.136719 68.160156 53.53125 C 68.28125 52.921875 68.339844 52.308594 68.339844 51.691406 C 68.339844 51.074219 68.277344 50.460938 68.15625 49.851562 C 68.035156 49.246094 67.855469 48.65625 67.617188 48.085938 C 67.378906 47.515625 67.089844 46.972656 66.742188 46.460938 C 66.398438 45.945312 66.007812 45.472656 65.566406 45.035156 Z M 65.566406 45.035156 " fill-opacity="1" fill-rule="nonzero"/></g><g fill="#231f20" fill-opacity="1"><g transform="translate(77.990392, 61.761484)"><g><path d="M 8.871094 0 L 8.871094 -9.367188 L 15.953125 -9.367188 C 21.84375 -9.367188 26.054688 -13.425781 26.054688 -19.472656 C 26.054688 -25.191406 21.800781 -29.359375 15.867188 -29.359375 L 3.496094 -29.359375 L 3.496094 0 Z M 8.871094 -24.566406 L 15.648438 -24.566406 C 18.5 -24.566406 20.679688 -22.148438 20.679688 -19.472656 C 20.679688 -16.449219 18.5 -14.160156 15.691406 -14.160156 L 8.871094 -14.160156 Z M 8.871094 -24.566406 "/></g></g></g><g fill="#231f20" fill-opacity="1"><g transform="translate(104.709268, 61.761484)"><g><path d="M 8.289062 0 L 8.289062 -10.316406 C 8.289062 -15.046875 10.726562 -17.699219 14.3125 -17.699219 L 16.40625 -17.699219 L 16.40625 -22.191406 L 14.03125 -22.191406 C 11.136719 -22.191406 9.109375 -20.613281 8.074219 -18.175781 L 8.074219 -22.191406 L 3.066406 -22.191406 L 3.066406 0 Z M 8.289062 0 "/></g></g></g><g fill="#231f20" fill-opacity="1"><g transform="translate(121.78086, 61.761484)"><g><path d="M 13.144531 0.667969 C 19.988281 0.667969 24.890625 -4.554688 24.890625 -11.09375 C 24.890625 -17.59375 19.988281 -22.859375 13.167969 -22.859375 C 6.367188 -22.859375 1.488281 -17.570312 1.488281 -11.09375 C 1.488281 -4.578125 6.390625 0.667969 13.144531 0.667969 Z M 13.1875 -4.1875 C 9.453125 -4.1875 6.671875 -7.082031 6.671875 -11.09375 C 6.671875 -15.089844 9.453125 -18.023438 13.1875 -18.023438 C 16.921875 -18.023438 19.707031 -15.089844 19.707031 -11.09375 C 19.707031 -7.082031 16.921875 -4.1875 13.1875 -4.1875 Z M 13.1875 -4.1875 "/></g></g></g><g fill="#231f20" fill-opacity="1"><g transform="translate(148.154419, 61.761484)"><g><path d="M 15.023438 0 L 15.023438 -24.566406 L 23.765625 -24.566406 L 23.765625 -29.359375 L 0.929688 -29.359375 L 0.929688 -24.566406 L 9.671875 -24.566406 L 9.671875 0 Z M 15.023438 0 "/></g></g></g><g fill="#231f20" fill-opacity="1"><g transform="translate(172.84456, 61.761484)"><g><path d="M 11.9375 0.667969 C 15.542969 0.667969 18.476562 -0.972656 19.925781 -3.734375 L 19.925781 0 L 24.890625 0 L 24.890625 -22.191406 L 19.925781 -22.191406 L 19.925781 -18.433594 C 18.5 -21.199219 15.542969 -22.859375 11.914062 -22.859375 C 5.980469 -22.859375 1.488281 -17.570312 1.488281 -11.09375 C 1.488281 -4.578125 5.9375 0.667969 11.9375 0.667969 Z M 13.1875 -4.167969 C 9.671875 -4.167969 6.671875 -6.777344 6.671875 -11.09375 C 6.671875 -15.261719 9.605469 -18.023438 13.1875 -18.023438 C 16.816406 -18.023438 19.707031 -14.960938 19.707031 -11.09375 C 19.707031 -7.167969 16.835938 -4.167969 13.1875 -4.167969 Z M 13.1875 -4.167969 "/></g></g></g><g fill="#231f20" fill-opacity="1"><g transform="translate(200.793627, 61.761484)"><g><path d="M 11.050781 0.667969 C 16.40625 0.667969 20.378906 -1.707031 20.378906 -6.582031 C 20.378906 -11.289062 16.792969 -12.628906 12.195312 -13.320312 C 8.375 -13.921875 7.554688 -14.460938 7.554688 -16.125 C 7.554688 -17.464844 8.546875 -18.585938 10.792969 -18.585938 C 13.210938 -18.585938 14.507812 -17.421875 14.613281 -15.78125 L 19.730469 -15.738281 C 19.730469 -19.96875 16.125 -22.859375 10.773438 -22.859375 C 5.351562 -22.859375 2.417969 -20.097656 2.417969 -16.015625 C 2.417969 -11.417969 6.085938 -9.714844 10.363281 -9.152344 C 13.382812 -8.699219 15.046875 -8.160156 15.046875 -6.28125 C 15.046875 -4.597656 13.792969 -3.476562 11.09375 -3.476562 C 8.117188 -3.476562 6.605469 -5.007812 6.519531 -7.039062 L 1.511719 -7.058594 C 1.511719 -3.152344 4.53125 0.667969 11.050781 0.667969 Z M 11.050781 0.667969 "/></g></g></g><g fill="#231f20" fill-opacity="1"><g transform="translate(222.419082, 61.761484)"><g><path d="M 23.421875 0 L 15.585938 -13.40625 L 22.472656 -22.191406 L 16.101562 -22.191406 L 8.289062 -11.785156 L 8.289062 -30.394531 L 3.066406 -30.394531 L 3.066406 0 L 8.289062 0 L 8.289062 -6.171875 L 11.785156 -9.996094 L 17.550781 0 Z M 23.421875 0 "/></g></g></g></svg>